<svg width="99" height="37" viewBox="0 0 99 37" fill="none" xmlns="http://www.w3.org/2000/svg">
<path d="M54.1914 17.1108C53.0226 16.6247 48.728 15.956 48.728 14.1037C48.728 12.7367 50.3314 12.3418 51.2993 12.3418C52.193 12.31 53.0698 12.5994 53.7821 13.1614C54.0498 13.4136 54.2595 13.7251 54.3956 14.073C54.5416 14.4679 54.6294 14.8926 55.1838 14.8926H58.0472C58.7223 14.8926 58.8911 14.7715 58.8911 14.0423C58.8911 10.0324 54.8294 8.27045 51.1196 8.27045C47.4672 8.42312 44.0199 10.3667 44.0199 14.3161C44.0199 18.1769 46.7372 19.3895 49.6883 20.3608C52.1711 21.1812 54.772 21.212 54.772 22.9125C54.772 24.613 53.4859 24.9789 51.9086 24.9789C51.3909 25.0218 50.8702 24.955 50.3781 24.7826C49.8859 24.6102 49.4325 24.3358 49.0453 23.9759C48.7305 23.6378 48.5348 23.1991 48.49 22.7308C48.4318 21.971 48.1102 21.8797 47.4377 21.8797H44.6123C43.9372 21.8797 43.7684 22.0315 43.7684 22.7308C43.7684 26.9838 47.9752 29.1704 51.6285 29.1704C56.1273 29.1704 59.4 27.1041 59.4 22.7914C59.4 18.6595 56.3028 17.7785 54.199 17.1108H54.1914Z" fill="white"/>
<path d="M98.0733 8.27269H83.2519C82.5185 8.27269 82.3263 8.62279 82.3263 9.19405V11.8292C82.3263 12.4005 82.5174 12.7505 83.2519 12.7505H88.1708V28.2491C88.1708 28.9793 88.5229 29.1704 89.0975 29.1704H92.2601C92.8347 29.1704 93.1868 28.9804 93.1868 28.2491V12.7483H98.0733C98.8088 12.7483 99 12.3993 99 11.827V9.19181C99 8.62055 98.8077 8.27045 98.0733 8.27045V8.27269Z" fill="white"/>
<path d="M31.2129 6.20652C28.1241 2.91842 23.937 0.911012 19.4665 0.574942L23.6489 15.4109C23.7201 15.6629 23.691 15.9331 23.568 16.1638C23.5072 16.2786 23.4245 16.38 23.3248 16.4622C23.2251 16.5445 23.1102 16.6059 22.9869 16.6429C22.9483 16.6544 22.9091 16.6635 22.8694 16.67H22.8516C22.806 16.677 22.7599 16.6807 22.7137 16.6808H13.4972C13.3683 16.6809 13.2407 16.655 13.122 16.6044C13.0032 16.5538 12.8957 16.4796 12.8057 16.3863C12.6933 16.2712 12.6102 16.1301 12.5637 15.9752C12.5172 15.8203 12.5086 15.6563 12.5387 15.4973C12.5481 15.444 12.5621 15.3915 12.5806 15.3406L16.7443 0.570435C12.5176 0.893553 8.53683 2.7071 5.49539 5.69514C2.45395 8.68318 0.544604 12.6564 0.0999447 16.9226C-0.344715 21.1888 0.703497 25.4778 3.06198 29.0423C5.42046 32.6068 8.93975 35.2211 13.0068 36.4296L7.26976 19.253C7.21753 19.0993 7.19018 18.9381 7.18878 18.7756C7.18695 18.5869 7.2329 18.4009 7.32226 18.2352L7.33294 18.2154C7.4454 18.0227 7.62408 17.8788 7.83483 17.811C7.96174 17.7689 8.09459 17.7479 8.22816 17.7489H12.0689C12.4871 17.7094 12.9049 17.8288 13.2409 18.0839C13.5131 18.3525 13.7068 18.6919 13.8006 19.0647C13.8165 19.0914 13.8288 19.1202 13.8371 19.1503L17.9074 33.5872C17.9166 33.6221 17.9326 33.6547 17.9545 33.6831C17.9763 33.7116 18.0036 33.7353 18.0347 33.7529C18.0842 33.7807 18.1414 33.7914 18.1974 33.7832C18.2535 33.7751 18.3054 33.7487 18.3452 33.7079C18.3777 33.6742 18.4013 33.6326 18.4138 33.5872L22.4787 19.1674C22.4943 19.1009 22.5283 19.0403 22.5766 18.9927C22.6704 18.6447 22.8577 18.3298 23.1177 18.083C23.4638 17.8279 23.8899 17.7092 24.3163 17.7489H27.9845C28.1177 17.748 28.2503 17.7689 28.3769 17.811C28.5871 17.8779 28.7653 18.0214 28.877 18.2136C28.9757 18.3852 29.0265 18.5807 29.0238 18.7792C29.0223 18.9414 28.9949 19.1023 28.9429 19.2556L23.236 36.4242C26.211 35.5339 28.9101 33.885 31.0746 31.6357C33.239 29.3864 34.7963 26.6121 35.597 23.5787C36.3978 20.5453 36.4151 17.3547 35.6474 14.3126C34.8798 11.2705 33.3528 8.47894 31.2129 6.20564V6.20652Z" fill="white"/>
<path d="M79.6293 8.27137H76.3748C75.5457 8.27137 75.3311 8.52556 75.0854 9.28811L70.9407 22.4405L66.7657 9.28719C66.5201 8.52463 66.3055 8.27045 65.5065 8.27045H62.0987C61.5152 8.27045 61.3892 8.7779 61.5462 9.18808L68.1465 28.217C68.5154 29.0429 68.7299 29.1704 69.4057 29.1704H72.3533C73.0281 29.1704 73.2401 29.0429 73.6116 28.217L80.1817 9.18808C80.3351 8.77423 80.2119 8.27137 79.6293 8.27137Z" fill="white"/>
</svg>
